<svg width="2077" height="840" viewBox="0 0 2077 840" fill="none" xmlns="http://www.w3.org/2000/svg">
<path d="M1073.63 835.115V711.768H1037.48V673.634L1153.76 673.609V711.768H1117.67V835.115H1073.63Z" fill="#5E5E5E"/>
<path d="M1174.39 673.613H1218.28V752.058C1218.28 763.742 1218.52 771.989 1219.08 777.011C1219.67 782.152 1220.62 786.297 1222.14 789.664C1223.82 793.758 1226.91 797.115 1230.86 799.122C1235.16 801.288 1240.22 802.373 1246.35 802.373C1252.34 802.373 1257.41 801.289 1261.55 799.122C1265.56 797.138 1268.73 793.782 1270.47 789.664C1271.96 786.297 1272.87 782.152 1273.59 777.011C1273.98 771.989 1274.22 763.742 1274.22 752.058V673.613H1317.97V758.963C1317.97 776.75 1317 789.773 1314.93 798.274C1312.79 806.725 1309.08 813.867 1304.07 819.822C1298.56 826.393 1291.05 831.302 1281.34 834.587C1271.7 837.936 1260.11 839.472 1246.09 839.472C1232.51 839.472 1220.63 837.936 1211.13 834.587C1201.56 831.301 1193.95 826.379 1188.29 819.822C1183.36 813.867 1179.77 806.725 1177.67 798.274C1175.42 789.773 1174.4 776.75 1174.4 758.963V673.613H1174.39Z" fill="#5E5E5E"/>
<path d="M1468.52 835.115L1400.74 673.609H1447.49L1479.85 763.809C1480.13 764.865 1480.66 767.242 1481.65 770.852C1482.7 774.581 1483.78 779.303 1485.32 785.575C1486.44 780.543 1487.54 776.155 1488.51 772.281C1489.45 768.189 1490.44 765.383 1490.93 763.83L1523.08 673.62H1569.75L1501.99 835.115H1468.52Z" fill="#5E5E5E"/>
<path d="M1628.6 673.607H1583.97V835.117H1628.6V673.607Z" fill="#5E5E5E"/>
<path d="M1664.19 835.117V673.607H1697.57C1722.71 673.607 1740.52 674.664 1750.99 677.03C1761.39 679.474 1770.58 683.341 1778.36 688.887C1788.44 695.76 1796.49 705.216 1801.67 716.267C1807.05 727.391 1809.71 740.28 1809.71 754.499C1809.71 768.719 1807.05 781.446 1801.67 792.577C1796.51 803.662 1788.46 813.151 1778.36 820.045C1770.58 825.475 1761.76 829.257 1751.51 831.556C1741.65 833.99 1726.13 835.113 1705.03 835.113H1664.19V835.117ZM1707.69 798.948H1715.03C1732.4 798.948 1744.88 795.408 1752.9 788.225C1760.86 781.101 1764.83 769.913 1764.83 754.355C1764.83 738.931 1760.86 727.616 1752.9 720.411C1744.88 713.316 1732.4 709.625 1715.03 709.625H1707.69V798.948Z" fill="#5E5E5E"/>
<path d="M1814.15 835.119L1870.09 673.609H1925.2L1981.09 835.119H1937.2L1929.07 806.271H1866.43L1858.12 835.119H1814.15ZM1876.19 774.757H1919.72L1903.34 721.406C1902.87 719.889 1902.19 717.3 1901.28 713.554C1900.37 709.93 1899.25 705.341 1897.72 699.82C1896.83 703.623 1895.86 707.567 1895.1 711.089C1894.1 714.666 1893.05 718.103 1892.23 721.424L1876.19 774.757Z" fill="#5E5E5E"/>
<path d="M1992.47 817.016C1992.47 810.825 1994.42 805.585 1998.74 801.292C2002.93 797.02 2008.29 794.795 2014.44 794.795C2020.78 794.795 2026.16 797.02 2030.54 801.292C2034.76 805.585 2036.99 810.825 2036.99 817.016C2037.04 822.99 2034.72 828.741 2030.54 833.01C2026.16 837.299 2020.73 839.472 2014.44 839.472C2008.29 839.472 2003.15 837.299 1998.74 833.01C1994.42 828.647 1992.47 823.171 1992.47 817.016Z" fill="#5E5E5E"/>
<path d="M164.003 679.8V728.122C158.155 721.28 151.976 716.564 145.885 713.332C139.981 710.079 133.341 708.396 126.601 708.444C114.13 708.444 103.74 712.87 95.9697 721.596C88.2238 730.214 84.2418 741.317 84.2418 755.403C84.2418 768.228 88.2414 778.88 96.2338 787.448C104.152 796.111 114.458 800.355 126.612 800.355C133.632 800.355 140.06 798.748 145.895 795.534C151.986 792.417 158.165 787.434 164.014 780.588V828.931C157.449 832.373 150.467 834.95 143.241 836.598C136.338 838.36 129.239 839.232 122.116 839.193C113.408 839.193 105.12 838.27 97.7618 836.126C90.2871 834.09 83.4918 830.731 77.1648 826.558C65.1306 818.511 55.8461 808.246 49.5297 795.875C43.1922 783.701 40.0234 769.837 40.0234 754.396C40.0234 742.07 42.1852 730.862 46.1427 720.706C50.1001 710.55 56.1489 701.454 64.275 693.21C71.6569 685.579 80.5079 679.522 90.2941 675.405C99.7511 671.658 110.363 669.676 122.123 669.676C129.238 669.706 136.327 670.557 143.248 672.211C150.422 674.013 157.386 676.571 164.021 679.842" fill="#5E5E5E"/>
<path d="M169.836 835.12L225.465 673.639H280.743L336.537 835.12H292.756L284.693 806.272H222.05L213.653 835.109L169.836 835.12ZM231.345 774.758H275.398L258.85 721.408C258.308 719.89 257.702 717.302 256.759 713.555C255.938 709.931 254.822 705.343 253.403 699.821C252.488 703.624 251.484 707.568 250.544 711.153C249.639 714.65 248.784 718.087 247.728 721.408L231.345 774.758Z" fill="#5E5E5E"/>
<path d="M537.419 835.116H496.246L486.74 765.359C486.036 760.383 485.462 754.925 484.979 748.808C484.437 742.853 483.884 736.23 483.349 728.979C482.293 735.895 480.339 744.42 477.364 754.71C476.638 756.774 476.142 758.387 475.79 759.436L453.897 835.12H424.695L402.514 759.436C402.191 757.841 401.784 756.263 401.296 754.71C398.127 744.42 396.191 735.895 395.124 729.25C394.652 735.236 394.307 741.29 393.691 747.333C393.039 753.291 392.48 759.218 391.54 765.363L382.033 835.12H341.191L366.049 673.639H409.616L434.022 756.999C434.149 757.471 434.564 758.387 434.969 759.908C437.142 767.257 438.553 773.529 439.314 778.861C439.617 775.642 440.137 772.448 440.87 769.3C441.722 765.863 442.673 761.552 444.229 756.647L468.752 673.639H512.435L537.419 835.116Z" fill="#5E5E5E"/>
<path d="M561.023 835.116V673.635H605.284C623.628 673.635 636.387 674.114 643.58 675.283C650.865 676.477 657.136 678.505 662.466 681.393C668.452 684.749 672.821 689.059 675.979 694.686C679.137 700.313 680.648 706.733 680.648 713.938C680.648 723.126 678.183 730.429 673.733 735.887C668.927 741.282 661.526 745.265 651.28 748.213C662.755 749.181 671.634 753.143 678.176 760.305C684.556 767.426 687.915 777.075 687.915 788.886C687.915 797.721 686.059 805.226 682.429 811.624C678.739 818.466 673.627 823.21 666.864 826.985C661.364 829.943 654.593 832.024 646.443 833.285C638.324 834.433 625.057 835.13 606.678 835.13L561.023 835.116ZM601.837 738.071H610.678C621.716 738.071 629.264 736.993 633.345 734.511C637.046 732.105 639.257 727.95 639.257 722.104C639.257 715.949 637.553 711.765 633.623 709.251C629.793 706.733 622.455 705.522 611.287 705.522H601.851L601.837 738.071ZM601.837 802.024H617.399C627.927 802.024 635.155 800.82 639.679 798.151C643.816 795.489 646.15 791.291 646.15 785.121C646.15 778.395 644.077 773.581 640.088 770.912C636.215 768.204 628.775 766.884 618.072 766.884H601.837V802.024Z" fill="#5E5E5E"/>
<path d="M759.769 673.635H715.445V835.116H759.769V673.635Z" fill="#5E5E5E"/>
<path d="M776.371 835.12L832.222 673.639H887.443L943.259 835.12H899.389L891.263 806.272H828.758L820.241 835.12H776.371ZM838.313 774.758H881.93L865.515 721.408C865.142 719.89 864.346 717.302 863.533 713.555C862.618 709.931 861.421 705.343 860.012 699.821C859.1 703.624 858.192 707.568 857.379 711.09C856.248 714.667 855.333 718.104 854.411 721.425L838.313 774.758Z" fill="#5E5E5E"/>
<path d="M412.397 145.849C415.6 65.2143 371.854 0 252.131 0C144.495 0 57.1114 49.2726 41.0669 147.152C11.7946 322.881 267.876 274.954 256.212 344.658C252.87 366.308 227.26 378.464 192.03 378.464C178.348 378.464 163.842 374.482 153.815 366.896C143.217 359.501 136.711 347.049 136.521 330.692H1.19682C-9.57345 413.665 52.8864 484.581 166.828 484.581C285.35 484.581 377.266 432.878 394.813 326.075C422.385 158.703 167.328 201.369 178.827 132.394C181.587 115.702 196.963 106.218 228.059 106.218C241.685 106.218 253.948 108.715 263.268 114.434C272.397 120.185 278.696 129.823 278.407 145.825L412.397 145.849Z" fill="#FF1135"/>
<path d="M447.972 137.436L373.957 586.217H498.377L522.702 439.174C539.109 467.448 561.784 482.01 595.936 482.01C666.001 482.01 750.593 434.118 772.527 302.393C787.639 210.352 755.659 127.879 661.029 127.879C625.117 127.879 577.194 146.405 552.939 187.191H551.827L559.999 137.436H447.972ZM580.874 380.457C548.577 380.457 535.398 348.524 542.993 301.928C550.475 256.987 575.913 226.378 605.886 226.378C638.69 226.378 656.146 251.286 647.495 304.326C639.922 350.394 613.868 380.454 580.874 380.454" fill="#FF1135"/>
<path d="M773.105 472.463H897.589L916.619 356.634C928.692 284.416 958.71 259.047 1009.57 259.047C1018.02 259.047 1026.47 261.371 1034.85 262.685L1056.78 129.851C1051.5 129.083 1046.25 127.879 1040.94 127.879C992.384 127.879 957.735 152.924 931.716 205.165H930.487L941.617 137.436H828.425L773.105 472.463Z" fill="#FF1135"/>
<path d="M1145.64 472.46L1201.03 137.433H1076.3L1020.83 472.46H1145.64ZM1083.44 94.7279H1207.98L1223.69 0H1099.09L1083.44 94.7279Z" fill="#FF1135"/>
<path d="M1181.85 472.463H1306.67L1334.75 301.932C1341.81 259.047 1356.26 232.664 1394.69 232.664C1429.97 232.664 1433.61 262.178 1428.01 295.449L1398.78 472.463H1523.53L1556.43 271.665C1571.62 179.705 1541.15 127.879 1458.65 127.879C1411.4 127.879 1377.25 149.547 1342.31 189.889L1351.13 137.419H1237.33L1181.85 472.463Z" fill="#FF1135"/>
<path d="M1764.04 223.217C1803.54 223.217 1811.09 258.287 1804.8 295.453C1798.89 331.266 1778.66 366.312 1740.78 364.397C1707.33 363.692 1696.91 332.58 1702.33 299.372C1709.58 255.664 1726.55 222.428 1764.04 223.217ZM1562.58 489.754C1560.16 539.009 1599.2 586.218 1710.08 586.218C1864.61 586.218 1888.31 507.601 1905.03 407.19L1949.54 137.444H1839.88L1832.69 181.642C1815.79 148.984 1784.07 127.887 1746.41 127.887C1643.38 127.887 1591.55 215.512 1577.88 297.995C1563.94 383.617 1601.59 456.589 1688.41 456.589C1733.37 456.589 1763.19 439.154 1784.33 419.966L1779.61 447.518C1771.67 495.635 1754.61 512.785 1718.66 512.785C1706.05 512.785 1697.71 509.615 1693.04 504.277C1688.59 499.417 1687.16 493.653 1687.72 489.761L1562.58 489.754Z" fill="#FF1135"/>
<path d="M2030.88 227.594C2056.31 227.594 2077 205.725 2077 178.645C2077 151.445 2056.31 129.26 2030.88 129.26C2005.37 129.26 1984.8 151.445 1984.8 178.645C1984.8 205.715 2005.37 227.594 2030.88 227.594ZM2030.88 215.818C2010.85 215.818 1996.93 200.323 1996.93 178.656C1996.93 156.534 2010.85 141.022 2030.88 141.022C2050.59 141.022 2064.98 156.534 2064.98 178.656C2064.98 200.341 2050.6 215.818 2030.88 215.818ZM2041.82 182.853C2050.46 182.177 2055.45 178.275 2055.45 168.436C2055.45 155.998 2049.07 152.262 2036.08 152.262H2011.99V205.165H2022.47V182.853H2030.78L2041.81 205.165H2053.94L2041.82 182.853ZM2022.48 174.933V160.418H2033.72C2038.35 160.418 2045.69 159.865 2045.69 167.052C2045.69 173.641 2041.82 174.997 2036.08 174.933H2022.48Z" fill="#FF1135"/>
</svg>
